<mxfile host="app.diagrams.net" agent="Mozilla/5.0 (Windows NT 10.0; Win64; x64; rv:137.0) Gecko/20100101 Firefox/137.0" version="26.2.13">
  <diagram name="Page-1" id="3P3HbvJeoXlsy_mELOan">
    <mxGraphModel dx="726" dy="483" grid="1" gridSize="10" guides="1" tooltips="1" connect="1" arrows="1" fold="1" page="1" pageScale="1" pageWidth="850" pageHeight="1100" math="0" shadow="0">
      <root>
        <mxCell id="0" />
        <mxCell id="1" parent="0" />
        <mxCell id="3UHfr8oTY5p3fqEJgbpi-36" value="" style="rounded=0;whiteSpace=wrap;html=1;strokeColor=none;" vertex="1" parent="1">
          <mxGeometry x="120" y="165" width="360" height="320" as="geometry" />
        </mxCell>
        <mxCell id="3UHfr8oTY5p3fqEJgbpi-14" value="" style="group" vertex="1" connectable="0" parent="1">
          <mxGeometry x="150" y="185" width="160" height="65" as="geometry" />
        </mxCell>
        <mxCell id="3UHfr8oTY5p3fqEJgbpi-3" value="&lt;div&gt;Project Files&lt;/div&gt;&lt;div&gt;&lt;br&gt;&lt;/div&gt;&lt;div&gt;&lt;br&gt;&lt;/div&gt;" style="rounded=1;whiteSpace=wrap;html=1;fillColor=#f8cecc;strokeColor=#b85450;" vertex="1" parent="3UHfr8oTY5p3fqEJgbpi-14">
          <mxGeometry width="160" height="65" as="geometry" />
        </mxCell>
        <mxCell id="3UHfr8oTY5p3fqEJgbpi-1" value="&lt;div&gt;lexer.py&lt;/div&gt;" style="rounded=1;whiteSpace=wrap;html=1;fillColor=#f8cecc;strokeColor=#b85450;dashed=1;" vertex="1" parent="3UHfr8oTY5p3fqEJgbpi-14">
          <mxGeometry x="10" y="35" width="60" height="20" as="geometry" />
        </mxCell>
        <mxCell id="3UHfr8oTY5p3fqEJgbpi-2" value="&lt;div&gt;tokens.py&lt;/div&gt;" style="rounded=1;whiteSpace=wrap;html=1;fillColor=#f8cecc;strokeColor=#b85450;dashed=1;" vertex="1" parent="3UHfr8oTY5p3fqEJgbpi-14">
          <mxGeometry x="80" y="35" width="70" height="20" as="geometry" />
        </mxCell>
        <mxCell id="3UHfr8oTY5p3fqEJgbpi-15" value="" style="group" vertex="1" connectable="0" parent="1">
          <mxGeometry x="350" y="365" width="110" height="50" as="geometry" />
        </mxCell>
        <mxCell id="3UHfr8oTY5p3fqEJgbpi-6" value="" style="rounded=1;whiteSpace=wrap;html=1;fillColor=#dae8fc;strokeColor=#6c8ebf;" vertex="1" parent="3UHfr8oTY5p3fqEJgbpi-15">
          <mxGeometry width="110" height="50" as="geometry" />
        </mxCell>
        <mxCell id="3UHfr8oTY5p3fqEJgbpi-12" value="" style="group" vertex="1" connectable="0" parent="3UHfr8oTY5p3fqEJgbpi-15">
          <mxGeometry x="75" y="15" width="31" height="31" as="geometry" />
        </mxCell>
        <mxCell id="3UHfr8oTY5p3fqEJgbpi-10" value="" style="rounded=1;whiteSpace=wrap;html=1;strokeColor=none;arcSize=15;" vertex="1" parent="3UHfr8oTY5p3fqEJgbpi-12">
          <mxGeometry width="30" height="30" as="geometry" />
        </mxCell>
        <mxCell id="3UHfr8oTY5p3fqEJgbpi-9" value="" style="shape=image;verticalLabelPosition=bottom;labelBackgroundColor=default;verticalAlign=top;aspect=fixed;imageAspect=0;image=data:image/png,iVBORw0KGgoAAAANSUhEUgAAAgAAAAIACAYAAAD0eNT6AAAzGklEQVR42uzBgQAAAACAoP2pF6kCAAAAAAAAAAAAAAAAAAAAAAAAAAAAAAAAAAAAAAAAAAAAAAAAAAAAAAAAAAAAAAAAAAAAAAAAAAAAAAAAAAAAAAAAAAAAAAAAAAAAAAAAAAAAAAAAAAAAAAAAAAAAAAAAAAAAAAAAAAAAAAAAAAAAAAAAAAAAAAAAAAAAAAAAAAAAAAAAAAAAAAAAAAAAAAAAAAAAAAAAAAAAAAAAAAAAAAAAAAAAAAAAAAAAAAAAAAAAAAAAAAAAAAAAAAAAAAAAAAAAAAAAAAAAAAAAAAAAAAAAAAAAAAAAAAAAAAAAAAAAAAAAAAAAAAAAAAAAAAAAAAAAAAAAAAAAAAAAAAAAAAAAAAAAAAAAAAAAAAAAAAAAAAAAAAAAAAAAAAAAAAAAAABm7+5dmwgDOI4/iEjo0MGhOHRwcJAODhlExEHEQZykiDg4iTg7aHKXXOJL7fuLWq0g0slBHBwdRESw2DamUVNbQTp2kA4dOkiGDo+/Cw+E9pqWYqzt5fuB39/wfLnnuAMAAAAAAAAAAAAAAAAAAIAz4BXbDQAAaC4KgHMGAAA0lwG/eMkAAIDm0e8X2xQANwwAAGgeCoCkAmDYAACA5qEAuKYAeKO1GAAA0BwUAGNaSQFwxAAAgPjr92cO6fCf0JYVAGcMAACIvz5/5pQi4JcCwCoAPAMAAOJPAXBXAWBdAJQHvOJ+AwAA4k0BMN9XC4BV7ZgBAADx1evPXA4P/3D9tQgY11OAhAEAAPHT65datde90QBYUAAkDQAAiJ8ev3RFAbDiAkBzAaApAF4YAAAQLz2ZUkIBUFIA2PUBoIUBUNFOGAAAEA/dmS+J7kwp3xMe/m6R9wC86j4Mep/5RTAAAHGgADitLeopgO3ZPAAqCoBeAwAA9rb7mS+HdfgvaLYWANr6AHARoAAId0k7YAAAwN5zP/O1TQHwUrMbB4C2cQD81E4aAACwt3Tp8Nfehod/uG43BYC2PgC0tQFgh7zPS9pxbZ8BAAC73z0d/tq4AsDWDQCtb5NrgCFN+zrkFY4bAACwe93NftunHb2X/VZSANguNxcA27sGcBEw7BUq2kWtxQAAgN1Hh/8FrajZBgWAVggjYGnEKwxqfC4YAIDd4na2nLyTLY9pNjz8XQBUF70GcAHgFv0gUOQaIAyA6kbShamR9HTng/Q0IQAAwP+Sz8625rPlqwqAnzr8V9cGQDgXANGnANEA0LYMAE0BsKwAGNOOGAAAsDOC4HtCS+aC2Zv5YHZREWAVANWtCYBtXgP0b3UNUAsA+0DTKg/TU88fpafOawcNAABovGww15YNvl/X4f9SW1AArGp2bQBo9QNAa2gAWAVAuGUFwNvR9GSgJUdTk1wPAACwHencj4TW5uV+dHi5+dN+bj7l5+ZeZYK5RQWAVQDYwC08/F0AaNEAcNcA0QBwcwGw5fcAou8BTGsuAFwEPKpu0o5qj1OTK9r7J6lP3VrnWGri2NNbH9u1VgMAALYMgA4FwBkFwAUFQJf2ThFQqQWA5gIgeg0QfQ9gWx8E0gbrvwgYDQA3BUBZh/8z7aoO/7NaUgHQQQAAAPAX9ATgoA7/y9prBcBinQDQGv8ewPDG1wC/FQBT2k0FwFEDAAD+HQVAiwLghAJgPB/MrtQLgIZ9DyAaAKs6/Ce0Tj0F4PfBAADsNAVAuwLg2e0/7J3PS9NhHMcfYsSQTh1Gh4iIiBgdokNESEREOA8R0SEiOgj7HiLNypYRRNIhyCLnvHjw1GEH8SghIR5qmm4KHsSDJxGdO0h0GEOGPL38UbP1telXoW2+X/D6BwT5vPZ9Hp7Pi8lMIQB2+h5AyvU9gHYsugiYIwBGOAaoJQJ8RgghhBD/DwKghuF/DWf+GQBYdA9gJ+8B5AiANtQvfiGEEKKcIAAC2E4A5Pb4PYAvBECtEUIIIUR5wvCvwdfcA8ju0XsAA6hX/4QQQohyhwDwvVpfDJRBSwB4fQ+gBwNGCCGEEJUDw78Jsx7fAxh4+1zDXwghhKg4GP4+dDgGyBcCYFv3AHpRw18IIYSoVAgAP18A4ju4CJhBnfkLIYQQlQ4BcJQAGMRSFwEzeN0IIYQQojpg+F91PwYoBAB2EwA1RgghhBDVAwHQQwCsbHEMMEcAaGGPEEIIUW0QABcZ/rMuxwB5AqDFCCFEORDqXPDhUTyHV/EmtmIb9oSiC70F0731iB+wDe/jLbyEZ+s70gHU2+ViX0MA+Bj+7S57ARJEwDGzS9gKeBhPsxkwGH02HGQ9cKAzMqz/u10w5rTUjDlPTiadx8Gk8yiYcpqPo/6movpgsPvxAr7EOI7gDH7HFbS/jW42bevdTeMMw38I49iMF4wQ+xSGf7A4ADBCABwwHmEr4GF02Aw4SABMEgBTqxIAQ7HIcBS1P8ADo87TuwRAH44TAFOrMvyT2JMKP9TTzKKyCcUW/BjEBuxjsP9AW0LXANg6ArDjL9MYx3t4Rl8HxH6CAOjfdBEwi57O/tkMeBCvsBlwjgCwaAkAG92QALB8AbAEwFIskmjtiiT0f7YNvjnPzo46kc9oGf5rJp0n+NimnEfYbMfDD7HpPR4xQlQSdbF5Xyg2X4sfGfxTmEcG+w6MlvgKUGyHq8s4jd142QixDyAAGjBPAFjsNx5hM+ANAmCWALCbAgCLAgAZ/llsUASUGv6tARxl+K+g5SuAawCk1gMgNx5ujBshKgEG/wm8g1NoQ2suFPQQAV4DwN3FcWyq/7B4DA8YIaoQhv8ZnGb4L+M944F3rAUmADIEgHUPACwEACYsw38JbxrhyojzPDDitA4QAJavAHZTAOBaAOAfAYCNdiLc2DIRfqCwEuUJw96PtzCJObTeAmD3xwClXcwz/BPYjH4jRJXB8D+EnzgGmCUAznsMgDcEgEUCYNQ1ALA4APDrgBFbBcBtzG47AHAjACYJgFNGiHKirmv+ENb9+sVfbAix3ALAMvh/sne+IVHeARz/IRK+uhcyjogYY/gijhFD4pCxF9ELE53OuZAY+2Pmgpm6cK3STl9oFMtCormtP9aW22KZs9rcJiEyWostIjazP/SimcZ2Wi98IYfEePrcdeWld533pOedfj/wgV4X9P08z/Pz5yP7sSSv+T9djiLmFQRAPfYSAM7Yx//PF/Hi4wDw+ygAIp8DeBgA2LLlt2VGhAmA2tMEgDU1AEI/AxAAk94CEABYUWqESBQYficewpEw44+YqAEQEgGM/xgeQJ1kFvMGxn8NdhAAqTYC4BW8s2dKAGDEAMCJANBngDD8vqHW6w+AC48CILbPAK1GiLmGwU/DUhxEy6+NAJjLcwCIzRPmIXpxjd4GiPkA45+B9QZsBMBK9AYCIGiUg4CTPwPUGxEmALYz/rVYY9k4B9BuhJhLGPt0bMRRtCZ8egBgIh0EDB8AiF5sMkIkOYx/GpYZGzQFAwBDAyDCZwACAPc/+RlgmxHPGgD4MABQASDmDgY+BTPwAlqIsxIA4ziCg9gfcN9jbxAAXhyb0XMAmDfV7/B5I0QSQwAU2QyALMZ/EBn/qJ8BwgVArhHhAuBW+AAIvQ+gOtx9AFi53wgxFzDwbjyP1gwHwH28hq1YjYW4CrPQFXDfY5cz/isxl7EvxWY8h2OzEADj2JmnnxIQSQwB4LYZAIvxXJQAwIgHAXV5TfgAOB4aABgMgKgXAvlwrREijjD8Q4uwkIH3ohXOGM8B+LAP/YO/Fp3mGWH40zAbd+F5Bn7E1meA8HbqTYBIVggAhwGbEbDZHwCTDgJGvQ8A24yIFAC5HAS8Z+McwHnU/0MivvjHHwcmht52APiHvxuLcBmmmlmAcV+Cq7AFvTMQAOO41wixwCAA0gmAm/4AiOE+gEHUjZuRA8BBALTFHgAfvkUA6OIyER9yWoZSsQB9BEBg4G1GwC1sIQBcJs4w9A704EVbnwEQz2GGEWIBQgC4Y7gPwEsEZBvxVAiANAKghwAYjxAAofcBjBIBu4wQ8YThz8IbaNkMgPvYhSswzcwRDH0KZmAzjka5D2CyXlxhhFigMP4p+BLj34P3n3IQ8CKfAfSz/9OEAFhCAHxCAPhCAmDyW4BRAqCMAHAYIeLF6pahDIbfixYy7DFEAMOPf+EqTKi7q4MhcBZ90/gMcBndRghhGP9UXE4A7CUAOhj/XuwiAPahht8mBMALBEAVdhABPQRANwHQRgCUEADpRoh4wvg7sR0tOwGAbQy/yyQoDL8Tt6AvyoVA7jz9siAhpkAApDL+TtSFWTME45+K6QSAnvbF3MDop2IrWiEBgNMKgH+x2iQJBEAO49/3RADoyV8IIcRChNHPRZ+NAPBhESbNz8wHzwa4CQDvRADwZz35CyGEWEgw+C/jNbTCB0DECLiMSfvETAC48TLDP4A5RgghhFhIBF/9/x9jAHjRjUn7xMz4p6Cb8S/ERUYIIYRYKARf/VuTjPYZYAD1xCyEEEIkI8FT/102AqAM9cQshBBCJCOMfDn6phsAOM7wNxshhBBCJCerPxtKY+RvohXRqQHwKwGgX0qR4OQ3jTjQhcsxF4vyd4+40YUJe09DPHivcciJrpLGwax1jYNF6xpvu0sbbrvQaRKALXVXHejaitvqrhZsq+svrqnrd9XUXXHVeq4sNSJmOiu/cnRWfuk6VXE083TFkYLTFa05ZzYedv2w8RAeTIh/dyHiCgFQhtZ0AwDHCIBMIxKG/Kbh59CNpdiKl3CUwbemuHuKg9iLzVhcQCDgvLrc5e0ddxzv7LiTidXvNg61o5fxt/wSAAEJAIvxD7i+4fbo+oaB3rKGAc/7Df9k42JMMbPER/XXMzB7c/31xo/rr51FL+Nv+d0alACwaoISAAG3e65c8nj62nFDnafv1TrP37pABk5UHU/BxSeqvs09WfWN52TV190dlce831ceswgAq7PiqHWq4ohFAFhnKg5bBID148aDeGCsq/yLP34q/7zl5/KWEsz85YNP9Xcq5icMvxO7YwyAo0YkBK/tGV6av2d4E2PfgwNohRoxACI7zvgPYAduQqeJE6/vurcUiwsD3i1+w+/Ou8VFO0eK3wy6ZufwA/buN7SqM0/g+EMIJeSFLDJcZJFlGEKRIKWIhFAWCWXodtud4HbbjNN1h650bLTVRBNnbc3mj6nT1jT+rRO7TurYzIx10+xuxjo1TdOsTVMRJ9isBGnvqFvCmN5aX4QhXCSEZ7/n5MRzc/7c8zy5556kO+cH37fiu9+H8zx5rtlTP/u6VCjMP758q4gqN758q5flnyTJ8jdzAYAyAEBfymeJ7rD8Bza3/G8tFYkQZ2fj56X0Cst/hCYBgGT5G7H8KRgAdFUCgGkAMAEAehv3/M+zFOr/c//uy0VUwS8DVr1uxZPAZgeIVwGrDlrxJLCR0tI8vutC+fFdg1Vv1g9W/Vv9AH1YdaKuv+oXdR9Uddb1Vb1Vd77q5M7fGT36y53nlP7Nd2rOrDxT804LALgAACa7t/9aAgDZs61LKgBAAgAJACTLf5qS57cc7e3bcnR935YjoaN4+Ll/Lf/0uYYqfh2wit8FMONZYDNeBDTjSWCruj/rL3bx5AcAT9KUBgBG6X4Rz6INS7+QHqLDlAYALHbfNABgV2k3Wfna7e7K1755iIryDIAqkusJAMi/JwAgAYDZPxDL3wwANIos8/TLEwnawPIfI7nRiOX/T0atf/QBAFkAIBsABAAky98oSVufa7m5TOQwO5q+KNvR9HknSQAgWf5m9WYWAMgJABsBDgBYAQDZSADgc9rUtGe0OCQAJGgQAEij140cvwzo+HlgpWXVsetC9/Fd/y0BgAQA9KE8Ud8vAYAEAHRevrXzfQkAxk7uPOf7b/6m9t1Cuv90TXfnOzX/Pnmm5owEAGYZAKC3QcApEwEcA0iOAUwA/BYAnJ0DwPPHQUAHCPi5gQDJFwAJAOQHWw6P04/7txz6TogA6B5+rkECAOKngc12+/08cIuIJ56QAXCapAYAWmlJ/bjPn9Ow8BPUSl/SDEkAQMoAIA0AEACgb/5IHZRYPACQBQDyBcCP9k2U/OjliT4AMPU0i18DAOQPgJ8YACCWf5o6Sfscvqbpi+Lapi8203WW/wwBAAoPAGQCQLL8p+gYrVjqADhePwgCPjIQYAGg3wUAygKAnq0AYAQASAAgTQDUvKMCADIA8IsgANBhAwF/6q8++D6tDBcAdA8AL3oCgGIAxBPq8l9OaVUAUIrlH5+HLcKw6IupksZJOooAACYCjCaonorzBQCyAUCZACBfAGzY91Ux1QOAFEkAYAYAyAaA+xjABgBlAsD9FcBGgKxuuZmiddUtN+4TAbO9KVlAJTVNyQGW/zRJY/nbALC/AvgdA+z2PQa4ShYAyAIAjcomat4zOkYlOQHgxVkAkA0AavdAwCHSBsCuTADwFaAOBBgAoLfq/AHwq9r/XE3dv679DwkA5GkCAHQGBMwB4DcEAraZCLABEHgMYAFg6xsgwADAEQMAsr/6EB0c/7D6wMbcAdDYDQLkp7NfAWIAxBPdsPQ3kCRSQkD8Z3+LMCz4IjpMKZIRAIC8AWCVpmO0In8AoHsAoAAA/JDlTy0AYMpY/t4AoDkAuL8CuAFA2QBgIeA6AFivAIAyGgYAsoblbwKAQgEAeQKAmmwE9FFJLgCgOQBQeADo8AXABxYAzK8ALgB07egt7drxX1cBwMwsAHoAAAjwA8D2TACQGwA0DwAEArwBIAFA6sPq9keiAcCuGADxhPunf9SjAYCbtFbEE+mw3B+kfpJ22gAI6xjA2RiVUUH+AEABAKjal0r8cF/qHACYBgDSyESADQC9Y4AsAPiJGwB0I72l5cajVCAcs635D/fR+m1NyRQAkDYAaA4AC7wH8JLKMYANAPpspGXPZ8tzBUDgMYAGAH6+6+NuECD5CmACgKx7ANkB8PaO3/747R29EwBAAgBpAYDelfYxAAAwcgLA8xjAfQ/gd65jgCPWMcA9AFB7aqC6fWOuAJh/D+BFNwJiAMQTLgDGV7Hwr2oAoO9v4s//kc7ftadK6NLcWX9AvgCg8AFgd4XKIgAAuQHA8i+mNpIAQGoCgLQAQJ4AkCz/K7TaAwDr6Pq25qQEAOQCAPkBgMIFgAQArVQkNOe1rAAgBwBoAQAYtAFAmRcBOQYYAwGlgjm18+yaUzvOpkCAzAAAOQFwhuYD4F3fewCdswAgfwAcpSMWAA7NAUAOVL8+TiViAfOJAwDWV4AYAPHkHQCVc7f/FRGwScQT2bD4v09JClr80d8DcJeyvwSEAQCyAEAAwHkMYAPgqX2pgyz/aQsA5AIA3cpEgOc9APK5CEguADgRAACILm5pvlEsrHmh+Q9rKAUAJNkA8D0GsAFAmQDwPgYwAWAjoCH4GMAAwCRtWAgAaBAEyDa/ewD/QgsEQIfrIiAAmD0GsABw3gQAfwpYdmrne0kAIGcB0Ct/dQ8BAIAAgOcxwLsWAiwA+P85IACgzIuAzmMAGwA0MIuAwYHqtpULA0CjVDkGoBgA8YQGgAaSGgAoEfEwkSz/BI2SDAkAaRb+mKMkSz6dMwDsLtGqvACAvADAnwKW05Sx/E0AuL4CWAAgDwCkWP5jTgCQPwDIEwBkAoC2Nt94RjDPN19fSX0AQPoDgLLfA0jRNe4BTPm+B6APAKPLuQAg+CKgPgAo6B7AGF8BSjkGeP+XO9+bsQBAvZlfAVQAMAYAxjXfAzCaDwDrGCADAGkAsFsfAE1KAKAYAPGECoA+DQCMiniYSJb/9+gCyQUC4C5do5P0LH2XCoXPsOhX0Xo6RVdoWvsYwG6ElucKAMVjgDN0GQDIp2wA+B0DpFj+PVQLAEqpyPEkcBGVsfw3Uw9fAa7/s9ZFQLIAwBeAERBwP8u/iyQAoGAA0DgA6GH5bybXkQqLv4hK6BkA0EnXAMDdbMcAjX7HAETbcwQAhQGAoW4QYAPA/z2AJF8A3gQAkq8Akq8ANgC8jwFSAGAQAOzmHkA5CHAdXwKABFUAgFqOAfoAwM3s9wAAAAEAcgFAflTdlqaShQLA8R6ACQCKARBPXgCQUgZA/PJfZMPCP0F3FwiAcXqBhb/ad+n7Q+A+KqF6SmoDwK6FCvMMAPr6TwDgrgIAugDAIxwDFAuFYfkX0Vq+ApwEAFMB7wG4AEDprc3XT7P80/MBQN4ASLP8u6gcACj9H1n+hSz/1fQCxwCTCwTAwN49nyXUAfB7EwDkAACFBQDHMYADAGkAMDUfAGfJdQ9gGgAMAIAKvgIkhOLwBWAZAFjLewBtAOCOwnsAcwAgEwDUZiCg7aPq/YU6APjEBoDfewAxAOIJdfknSFqpAGCriCffi7+AniZpp4yACaqnUC5psviL5iCgfAxgd4eeyBUAge8B2A8CWQCwEWAB4Co9KXIYln85XQMAM57HADYAHMcA182eJ7IBMO8iYHKG5X+VykUOw/L/Lp0mGwD+7wFkHgNMAYAnFwaArMcAWgA49lMnAILeAzABQO/JjHsAJgIAwE1aDwIKRQ4DAFZyDND73vPHpxTeAzAAkPkVIAkA1ugCQPEYIAZAPKEAoMIFAH8ETNIjIp58A2AVXVkAAEapkgpFiMPyL6Q1NKIMALuLuQJA4z0AngWeBwD6aozlv5oKRI7DEUAZXQo4BggGgPsYoJ+vAGtFCMPyT1BflvcA3AAgAKD8Ze9VAAACLAAEHANoAeCTWQDQ8eD3ALIB4DJfASpESMMXgAQAaL0HAHIDwPMYYJo2qwOguRsExACIJ7ph6T+THQDx3/9HPSz5LpIaALhLw5QQeRwWf4I6lQFgV00F4QGAfAFANgD6AECJCHEAQCkAmFA8BmD5kw0A5zHADAA4S0UixNkDAqhH5xgAAEzufemzIm0ABBwD6ANgSBoIcL4HcML7PQBpHwOYAJjhHsAlAJAQeRiOABq4BzCVcQzgugjoPgbYf1EXANYxgPs9AAsAFAMgntAA0KABgFFaJeLJ5/JfQ2lNAAzTamFNBAjoIx0ADNNf5QEA5AuAJJWIPAwAqGf5p4PfAyB/AFDyEst/lcjDAIAHAEBa6T0A2ksAoFwVABQAACIAQLkAYNDrQSByAsD8CnAJBDwomDwBIAEAej3fA/AHQJqUQDLkDQDnV4AYAPGECoB2DQAMUkLEk6/lv5zOkSRSQsAYJUSEw/IvoWENAKRpUw4ACH4PwAYApb4EAesEkycAJFj+fUrvARAAIBcA7lCpyOMAgKNuAPgfAwCARj0A/F56XQSkBQHgDQDAPQAbAAHvATjuAUwAgBKR5wEAKwHA5Nw9gL7s7wEAABMBG7QAkHkMsLkhBkA8eQVAN0lFBAzQcrEE5m+P3CqnKt8OZzZh9phfh1T7quqxg3aPq3TAbJkiACoopQGACXpCRDws/wL6vtYxwKvfXAwVAOQCgI2AnwKA+wSTRwTUZgUAbfE/BpimRsHkGQAPs/xTge8B2F8BToOAQm0AGPk/CKQBgGEA8AkAGJL2g0CB9wDo3BQIiOxyMgDocjwI5DgGcAGgTQ0ALQCgWarcA6AYAPFEDoBusUSGJd9N0rfDzibkY9k6pNJXRAftHg/qgFmFUJjH21PdxnLXAMBuKhSLNCz/DpphwasiYK02APSPAcYAgH2Wnd+vAGml9wDcABiklREA4Ds0MO8ewJ6sxwBDAGCFKgDIAkDQRUB9APi+B1DneQxwEgAUi4gGADxMtxXfA6D9vVS0AACQGwAUAyCeGADfIgBsDFz+B1LLAMCkBgDGaVG/xrD8H6IvNQDQmmcApGmTiGhY/iMKACAXADYKJgIAFFCHxnsAoyBgVQgAIBsApAUAxzGABQDfewBpALBGRDgs/+/RZesegBsA7vcAhgDAChUADAEA/4uAFAMgnnwDgL79ACAHACg3ANBCAdCoAIDaxxWXP6Vpq1jkYfkX0UlSBcAw/aUuADTeA7gAAOx/P/8AOGYBQOc9gJsiwgEAG7zeA2jyfg9gHACU6wIg4D0ALQC8YQCAAu4B2ACoO39CRDws/0LqsgBAznsA9nsAFgDGAECpMgDIfg+gwXkMEAMgnhgA3zIAdAYs/2LqIVUAjNL9YgkMy/8JDQBM0LqcAUBeAKAGAFAgIhqW/yaP9wCCANAqIhwAUKbxHkCKAo+rXskEAIUJAHIDwP89gDsg4DGxCAMAGjQeBLpJa1UAQCYAgh4EohgA8UQEABsBPVQgFOb/NQDIBoASAroDAPAAfU5S8StAq1giY30FmNI4BtiuCwDF9wCmqUREOCz+SqV7APZFwAn6axHhsPyXBb4HYAPgDj2sBYDgYwDSB4DXewAAwPkewCAlxCIMAKhUfQ+A5Z+iimAA7DUBkP0YgPcAYgDEs0gA6Ke/EAqzJABADgBEcw9AHwCVlNYAwANiCQ0AGNIAwCklALyqBwC6JiIeLgJWsPxTGg8CDdEKEfEYAFB8D2CanlABAJkAoNAAcNQBgID3AKjvFbE4AwA61jgAQD73ABQB8LEiACgGQDzhvQOgAYALtEIozNIDwK2lDICDJBUBcE0ssQEArRoASOYGAPIGwDER8QCAdSz/Cec9APK7CNgpFmEAwLgbAOR9EfDJYACMOAAQ8B6AJgCMFN8DqBCLNACg1ACA/3sANgBICwCUCQDnewAxAOIJFQCNJBURcAUALImz5zkAfCvuARwMBMCgBgDeFEtsAMAzpAqAtC4AFB8E2iQiHgDwICXVHwS6sSgXN3kVcMwEQMB7ADoAIDcACATkAIBPvQBAvgBYJhZpztkAIO4BZH8QKDWgD4Cs7wFcjAEQT0gA2KgOgKXzWwB5AQDpA4ByB8AkSUUEjFD3vV7/WqkfGLVl6/b89gdXaXfRAoAqAkpVAEBS8RhgEgA8IiIeln8pjRkAUHwP4FER6dgA2BMIANIEwCv+AKDcAOA+BrABYB0DJEXU434WWFoIsAHg/R5AihQA0AoA9poACHoQiGIAxBMCADrGKzQAMEUqt26XKAAW7RigO8vyT5B0AUAxlrtSPzBqy9bt+e0PrjIjTQBUhAyACb4COC/XLT0AtNzwWITRAsC+CBgOAALvAWgC4KgNAPJ/EAgADIpFHhcAKFcAfDwLALIA4P0eQAyAeEIDwEolANhtFfEIANCuAYD2LAAoywEA9HVICLjtSB8ApAqAKlUAKN4DGKNol6v9y4BjJFV+GIhKxCLMSxYAFN4DUALAz/6PvTt8req8Azj+IEEuvggjjPtiyPBFKCUvRIaUUkoRGaJuVRGRvpBqsqx1ri150WmcGqbRpjVrbYx2c23qpJQygmvdJm3WpWfS2TS0ruu6W5EgxUXNbm0YeSGXEsLZ956d+MTTc+55nnvPvfe59z4/+P4Dvnk+nufJ74YDgHwAUAIAiHsHMCyqPOfvAsAJinoH8HyxAAjbB2ABYCfxa4AZDQQMCTsCAAxrAKCnAAA2kxtIGQBUewDgh4ESBACZAQCFfQApUfGRAAi9BpAAINIAAEkARO4DIA0AkAeAkIVAZBoAfi0BEL4PoBQABPcBWADYKdtXAEcDAJOiwYfDv4VGSRUAWwsAoJPcb1QDAKBiAdCjCoDYa4AqA4AKAYAkAEQVRgLgX27MNYAWAMgDQMw7AC0AHPcBMKjyDsAEAPwUAMivAIV+GChLSgAgV/EawALATmJfAI6Rq/HngK2igYeDv5UuaQDg/gIA6DEWAFpfAaoLAKo4ADoCACi4D8BAAERcAyQOAEoAAHIhEBkKgIh9AMoAOBwKgL9ZANgp8xeADRz2OQ0AdIkGHh4CPsDhf0PjIWCzPgBq9RqgUgAgUwEw/xWgRgDQUzoAJAISAIC8Bij4DqDqAPgTADgPAGL2ASgD4EIcAOQ+AAsAO4kCYDmH/RVVANA5ENAsGnQAwCYO/68VATApmMYBgBICOhMEAFUPAJQBAa6HgKh9AAYAgNx9FAoAAgCkCICf/x8AlCwA9twNADIcAKeUAEDZv2gCIG4fwAcWAHYSBMASDvuzGtcAUwBgtWjQAQCnNBYCDasAwNhrgLK8A1D/KwCFawCjAFDgHYARAIjZB6ANgNhrAE0AHA8CwL8G+NUdBJgGAO8aAABE7gPQBwDF7QMgCwA7iSKgSwMAcwDgOdGgw+H/qcY+gO4EAZChg2FxuCv1cL7+Qt26u6PxbVgQAKCv4mpLGgCbLACiAXBAAiDkIaA2AI4AABAQAAAlBID4h4AeAswAQNhDQAoCgBQAcAQAHM4DgMIBcNECwE6ZAJDWfAcwQ2nRYMPB36axEGiaVhcGwH+2aQDAoYb4N9/47Fc1AwDKAyBwDWAOAPb6AKCYh4CkBIC/FwIAFQeAgQAAIvcBGAaAwD6AwDWAHgAu+ACI2QdgAWAn+eGwH1H+CnDSq1s02HDwH9T4XYBL1BoDgK0aABijpaIBRgkAEgFVAUB7LADICABkAgAIuQbQBMCRBQCI2QdAqgAYG+YrgASA3AdgKAB+43oPAeP3AegDIHofgAWAnbIBYDPd1vgKMGHKbwNUYjjwW+lSAAAUCYBTgokBwPfIVUTABK0QDTB5AJArEWA6AGKuAYwBQOQ1gBYAyOErgPtMFACoWAAUvAbwFgKZAYA/AoBvXAMEAfATfQCoXQPstwCwkzgAltKYBgDmaEA0yHDgb6OcBgA2KwAgrQGA/9L3RQOMLgCo8gDo/XdbewEA/LiBANBXIQDIfQCOoQDwrwECACAlAJAbeQ1gAWBHlB8BHRoAmK/uDyUO+2aa0PhhoEmhOAAgq3EN8JRogFEHABkAgHyR+wAMAMDeA5EAkNcAmgA4EgSAREDRABgAAIFrgPB9AEYA4GUPAAX3AXgAeFEJAH99/BkVAPjXABYAdsoDgGaa1ATAKNX13TSHfYfmLwMe0wDAiAYAzooGmNoAwGQbCJAAoDAAUI0A4J9aACAPANH7APQBQB4AAvsADAdA3D4AfQDE7QO4aAFgp4wI2EU5TQQMUZOow+GgX0kT5IYUBoCrtFIDAAfloR+LgBlaIup8QgBA0QDYaAgAFnwFMAwAGQ8AMfsAtAGgdg2gD4DofQAXfARUHwB/AADz1wByH8DJsN8FyIIAdQBQyD4ACwA7csoMgGX0kSYAcrRJ1OFwyL9Oc+QqfgV4HQCkNACwhYM+p/EVoC7/nRfOBh8AZDgAJjPthgOgex4AB+IBQLEAOBwDAAoA4KMkABB8B2AkAEL3ARQFgMMWAHaqMBIB62lWCQCyKdos6mQ43BdTF7myWADkSOswAgD30mcaADhPLaKOp6YA0AsAot4BGASAmGsALQBQLAAIAJAiAF70AUBhDwHJNAC8IgEQtQ/AA8BAlq8ACgDoGwYBruI7AAsAO2UFQBOdV9gHEGyC2kQdDIf7arpBbmwSAK8JRhMAKTqrAYBpWi8MGjYCttLSJAGwwXAA7AgAoOA+ACMAkHFj9gFoA0A+BCQqCwDkPgCzAPAEAOArQNg+AACw8Bog++ckACD3AVgA2GHKj4DllAkAQBUBa0SNzvqBqUV0H2XlAa8EgCu0QuiOvAZwwwvd/3/JlLcAHPzfoVGaYR3wED1ISxoHAJOuwjsAwwBASQCAYvcB6AMg+hoAAPgIMAYAd18DvOQjoGQARF0DWADYkVOBrwCd2gCQCLhf1OD4h/8n5OoAgHYDgMVFAqCZZjR/GOgxYcBw8HdRjtwNRFP8JsAb1FY6AIIIMAsAO+oAAHIfQKkAoOQBENwHYC4AovcBZEkZACTfAYRdA1gA2KnISAi8TF8rA0CWpacpJWpgOPAX00OUJZdIGQBjlBIlDAf9czSnAYApqtqbCw78RfQQ5SJ+HjjHD/84tJ5a6hkA7Yci3wFQ9QFAbuw7AE0AEACgEABQUQAgCYDQawBzAHDuiSHXewhIAIAifxdACQDO488OgwBX7R1AjwWAHTllBsA9dFELALLb1Lv25HXjH61x2HfSVXI1ATBF6wVTIgAeoGtKAJBlKC0qORIA99I4uREAoK/yTdN5WkOpugRAb50AYL8KAD6RACAKB4BEgC4A6IOwfQAGAuAVN3ofQLIAIAsAOxUeiYBW+qIoBBAAmKA1ZMS99cJZNzDVRi/LQ18LALPUIZgEANBE/eRqImC8or8RIB/9ZciNBoBEgN8VWq4DAAoCgMwCALkq1wCiSrPnwOcSADHvACgWAL0BAERdA+gD4EMJgPg/BzQDAPIhYKF9ANkRFQDslAAI7gOQAPC/AlgA2KnYSAQ8QtmiAECUpVNrT5ixNXDdwM0mWk+fAoBZeehrIeANSgkmIQS00owmAOZonNKCqdDhP0KuLOYrANHzlKpXALQbDoB8ch9AaQAgVQCQGgCO+QB4sWYA8KoHgNh9AACA1AFAIfsALADsVH8AwBoO/Kw+AGQAIEt9a0/caKOUqPCsO36zxT/436dZcgGAWwQA3iB56CaHgC7KKQNAlqEt1FSWg7//1mJazSGfJVcTAFeoWTDFAICMA8D2AAAKXgMYBIDoawB9AFAEAKgkAFD4Q0AyBwDnAIDCPgBFADw3zDWAq/IOgCwA7FRnOPA7KBsAgC4C6EaGhmg5NVXg4F9Cm2iUpvMHv2yKtACQoWWCKQMA0vSuFgBkWeqmljIAYDfdkIe9GgBohsN/h2D0AUDGAuB6AACF9gGYB4CQfQDFAoCSBwAZDYC3AEDgGiAMAJQHwKAFgJ36GQ79wJeAogAw3yx9SrtpNX2XFifxP31aTo/QaZohd74SADBCrUJ39K8CpkL2Aag2+cNffrmL2ko89JtpCznkeh2NLQiAXgCQqkcAbJcAKPQOwAAAfO7GvAPQBgBJAETvA9AEwIeu4jsA4wAQ3AfwNr2zSxMAOwsAQF4DWADYqeJIBDxKU0UCQCJANke3aJx+R120au3gjaVKB/7gzaUc7PdTJ52kUbpCOXJlJQEgEzj8y4mAx2hG7yuAjMM/Rxnqpwf1Dv4v09TJgX+OZsgtBgA0BgBaBFMaAIIIMAUA1z0A7DAcAFQYABIBCQCAigQARQCAjAPAaQ8AsfsAAAApA8CZB0DUPgALADumDAd/G31Cc1rXABIA8Q3eaYIyC1vndXOSXK/jmg3IFN4BvEZKGEnwrwI6aLZIAATL0gj1UQdtmY/DPl83DVGGcuQS3QqkDIB3ycNSowCg3XAAyIeAxQPgUAAA8dcAH+sCgAoCgEwBwKsk9wFELARSAsB7AAAEuGrXAL+wALBjxnD430vDZQCAbDC8dXe6KUseADkaUn7wlzwChmhWAkALAUo9nK8/UGkAyNJywdQ7ALZLAMh3AEYCgGIeAlLRAKAkARC9D8BIALwSvRBoVx4AJxQAcNQCwE7tDgf8brqqAAAyEwAhCPiCHqEmUemRCFhC++l2HgA/MB8A79NKwSQFAAoCgEwBwHUPABQAAM0DgESVZrcPgALXANoAIB8AFABA4B0AqQHgBR8AYdcAg998B1B1ALwJAN4CALH7ADQBEPUOgHwAkAWAHdOGA34xraSxOgHAeVolDBgO/xTtpxnDAXCJWgVT7wB4NACAgtcABgEg9BogKQAErgGSAsBxEwHw5G8lACL2AfAQkE5m39lVAgBIAuCQBYAds4eDPkXbKEOz6g8B9QFAQQCQNgCC1wAf0U5h4ACAVQDgsrf8J0kAlI6A29RPacGUCwBkPgDmvwIYDoC9CQBAXgMkC4DIfQDGAeC0q7APIPu2FgAIAMSsBbYAsGP2cOC30X6aIdfLNADcjYBpANDP4d9Ki4ShAwBWcLi/nhwAqDQATFEXLRFMIwGAYgHwI8MBQJoA+IcHAKoIACgAADIIAP5XgIIAIAUA9A+/dwcAz1oA2KmP4dBPUzdlKGfYNcBsfhUw9ZIRK4pVhwN+K12g2SpdA0zTWZL/bmUDABkMgHwR+wAMAMDlzG4fANH7AD4jRQDskwCIuQbQBMD48As+ABT2ARgAgDMSABH7APQBcNQDQMw+AAsAO7U3/heBDg7+cZo1AABj9BQH/z3UJGpsONwX0XfpaZqoIABmKf/Qbz21CKZyAAgiwCwA7DAcADH7AJQAcBAAgAAfAJQUALolAAruAzAIAG8qAICSAYBXrwWAndofDv9W2g8ARugaB/zXxQGA1AFwlUapl5aLOhoO+hR10jmaormirgH6I8sf+hl6jR4kCabyAGAVOcE23mla1jd9hpaJSo0EwDI6Q8524vD3aicOfy8AQNecThJVmt09l08DAGePHwBw9vpx+HvtIwDgAIBVCgD4FgAY8N4B+AEAryMEABwA4PR5fewAgGWKADgIAJxjfgDAGfADAA4AcAYJADgAoOoH4O+fPOMAAOctAgBePAR0AIADAByuARweAtJLbwKAFSJmRnf2HwQADtcADgBwuAZwAIAXCKDDDgCgQw4A2CHs2Kn14fBvofs44LfSSRqjXDgCtAFwm8ZpkHbQSvq2qOPhwG+mh6iLRmimxK8Ak3SKtnHot1FKyCknAFKUDrbxTtOyvukWCoKkEgBoohZKbycOf6924i8B0h0EAOhaupNEleZnPZdbAEB6jx8A8NpL/CVAGgCk9xEASAOAlAIAFh0CAd4+AD8Of68jBADSACDdRwAgDQCaFAHQDADSx/wAQHrADwB4AQC6mAYAzaLKAwDSvANIA4A0DwHT5/7H3h2bNBiFYRROJcEildwJnMAJLNXCQYKFE6QQMQME7P4qZSoRCytX8yApLIVYhPA8cCCZ4HtzmzxMowEw3qsBMBoAowFQrxcNgLM/vAAsGgCjRgNgNABGrwD1MhoA9TwaAPU0egU4ur9Vh3/RoZ/X5X4UPNa6trW72fz0Vl/V56oGwFSrjv+y7m43p/UL/8BRcNVxv69VTbXb91Gfv75vGwDrjv2yrmvMAOBYdPDn5TgdqIN/XosZAAAAAAAAAAAAAAAAAAAAAAAAAAAAAAAAAAAAAAAAAAAAAAAAAAAAAAAAAAAAAAAAAAAAAAAAAAAAAAAAAAAAAAAAAAAAAAAAAAAAAAAAAAAAAAAAAAAAAAAAAAAAAAAAAAAAAAAAAAAAAAAAAAAAAAAAAAAAAAAAAAAAAAAAAAAAAAAAAAAAAAAAAAAAAAAAAAAAAAAAAAAAAAAAAAAAAAAAAAAAAAAAAAAAAAAAAAAAAAAAAAAAAAAAAAAAAAAAAAAAAAAAAAAAAAAAAAAAAAAAwHd7cEgAAAAAIOj/a4szAAAAAAAAAAAAAAAAAAAAAAAAAAAAAAAAAAAAAAAAAAAAAAAAAAAAAAAAAAAAAAAAAAAAAAAAAAAAAAAAAAAAAAAAAAAAAAAAAAAAAAAAAAAAAAAAAAAAAAAAAAAAAAAAAAAAAAAAAAAAAAAAAAAAAAAAAAAAAAAAAAAAAAAAAAAAAAAAAAAAAAAAAAAAAAAAAAAAAAAAAAAAAAAAAAAAAAAAAAAAAAAAAAAAAAAAAAAAAAAAAAAAAAAAAAAAAAAAAAAAAAAAAAAAAAAAAAAAAAAAAAAAAAAAAAAAAAAAAAAAAAAAAAAAAAAAAIAFeDsXvZsCvhIAAAAASUVORK5CYII=;" vertex="1" parent="3UHfr8oTY5p3fqEJgbpi-12">
          <mxGeometry x="1" y="1" width="30" height="30" as="geometry" />
        </mxCell>
        <mxCell id="3UHfr8oTY5p3fqEJgbpi-13" value="Test Suite Evaluator" style="text;html=1;align=center;verticalAlign=middle;whiteSpace=wrap;rounded=0;" vertex="1" parent="3UHfr8oTY5p3fqEJgbpi-15">
          <mxGeometry x="10" y="10" width="60" height="30" as="geometry" />
        </mxCell>
        <mxCell id="3UHfr8oTY5p3fqEJgbpi-16" value="" style="group" vertex="1" connectable="0" parent="1">
          <mxGeometry x="175" y="290" width="110" height="50" as="geometry" />
        </mxCell>
        <mxCell id="3UHfr8oTY5p3fqEJgbpi-17" value="" style="rounded=1;whiteSpace=wrap;html=1;fillColor=#dae8fc;strokeColor=#6c8ebf;" vertex="1" parent="3UHfr8oTY5p3fqEJgbpi-16">
          <mxGeometry width="110" height="50" as="geometry" />
        </mxCell>
        <mxCell id="3UHfr8oTY5p3fqEJgbpi-18" value="" style="group" vertex="1" connectable="0" parent="3UHfr8oTY5p3fqEJgbpi-16">
          <mxGeometry x="75" y="15" width="31" height="31" as="geometry" />
        </mxCell>
        <mxCell id="3UHfr8oTY5p3fqEJgbpi-19" value="" style="rounded=1;whiteSpace=wrap;html=1;strokeColor=none;arcSize=15;" vertex="1" parent="3UHfr8oTY5p3fqEJgbpi-18">
          <mxGeometry width="30" height="30" as="geometry" />
        </mxCell>
        <mxCell id="3UHfr8oTY5p3fqEJgbpi-20" value="" style="shape=image;verticalLabelPosition=bottom;labelBackgroundColor=default;verticalAlign=top;aspect=fixed;imageAspect=0;image=data:image/png,iVBORw0KGgoAAAANSUhEUgAAAgAAAAIACAYAAAD0eNT6AAAzGklEQVR42uzBgQAAAACAoP2pF6kCAAAAAAAAAAAAAAAAAAAAAAAAAAAAAAAAAAAAAAAAAAAAAAAAAAAAAAAAAAAAAAAAAAAAAAAAAAAAAAAAAAAAAAAAAAAAAAAAAAAAAAAAAAAAAAAAAAAAAAAAAAAAAAAAAAAAAAAAAAAAAAAAAAAAAAAAAAAAAAAAAAAAAAAAAAAAAAAAAAAAAAAAAAAAAAAAAAAAAAAAAAAAAAAAAAAAAAAAAAAAAAAAAAAAAAAAAAAAAAAAAAAAAAAAAAAAAAAAAAAAAAAAAAAAAAAAAAAAAAAAAAAAAAAAAAAAAAAAAAAAAAAAAAAAAAAAAAAAAAAAAAAAAAAAAAAAAAAAAAAAAAAAAAAAAAAAAAAAAAAAAAAAAAAAAAAAAAAAAAAAAAAAAABm7+5dmwgDOI4/iEjo0MGhOHRwcJAODhlExEHEQZykiDg4iTg7aHKXXOJL7fuLWq0g0slBHBwdRESw2DamUVNbQTp2kA4dOkiGDo+/Cw+E9pqWYqzt5fuB39/wfLnnuAMAAAAAAAAAAAAAAAAAAIAz4BXbDQAAaC4KgHMGAAA0lwG/eMkAAIDm0e8X2xQANwwAAGgeCoCkAmDYAACA5qEAuKYAeKO1GAAA0BwUAGNaSQFwxAAAgPjr92cO6fCf0JYVAGcMAACIvz5/5pQi4JcCwCoAPAMAAOJPAXBXAWBdAJQHvOJ+AwAA4k0BMN9XC4BV7ZgBAADx1evPXA4P/3D9tQgY11OAhAEAAPHT65datde90QBYUAAkDQAAiJ8ev3RFAbDiAkBzAaApAF4YAAAQLz2ZUkIBUFIA2PUBoIUBUNFOGAAAEA/dmS+J7kwp3xMe/m6R9wC86j4Mep/5RTAAAHGgADitLeopgO3ZPAAqCoBeAwAA9rb7mS+HdfgvaLYWANr6AHARoAAId0k7YAAAwN5zP/O1TQHwUrMbB4C2cQD81E4aAACwt3Tp8Nfehod/uG43BYC2PgC0tQFgh7zPS9pxbZ8BAAC73z0d/tq4AsDWDQCtb5NrgCFN+zrkFY4bAACwe93NftunHb2X/VZSANguNxcA27sGcBEw7BUq2kWtxQAAgN1Hh/8FrajZBgWAVggjYGnEKwxqfC4YAIDd4na2nLyTLY9pNjz8XQBUF70GcAHgFv0gUOQaIAyA6kbShamR9HTng/Q0IQAAwP+Sz8625rPlqwqAnzr8V9cGQDgXANGnANEA0LYMAE0BsKwAGNOOGAAAsDOC4HtCS+aC2Zv5YHZREWAVANWtCYBtXgP0b3UNUAsA+0DTKg/TU88fpafOawcNAABovGww15YNvl/X4f9SW1AArGp2bQBo9QNAa2gAWAVAuGUFwNvR9GSgJUdTk1wPAACwHencj4TW5uV+dHi5+dN+bj7l5+ZeZYK5RQWAVQDYwC08/F0AaNEAcNcA0QBwcwGw5fcAou8BTGsuAFwEPKpu0o5qj1OTK9r7J6lP3VrnWGri2NNbH9u1VgMAALYMgA4FwBkFwAUFQJf2ThFQqQWA5gIgeg0QfQ9gWx8E0gbrvwgYDQA3BUBZh/8z7aoO/7NaUgHQQQAAAPAX9ATgoA7/y9prBcBinQDQGv8ewPDG1wC/FQBT2k0FwFEDAAD+HQVAiwLghAJgPB/MrtQLgIZ9DyAaAKs6/Ce0Tj0F4PfBAADsNAVAuwLg2e0/7J3PS9NhHMcfYsSQTh1Gh4iIiBgdokNESEREOA8R0SEiOgj7HiLNypYRRNIhyCLnvHjw1GEH8SghIR5qmm4KHsSDJxGdO0h0GEOGPL38UbP1telXoW2+X/D6BwT5vPZ9Hp7Pi8lMIQB2+h5AyvU9gHYsugiYIwBGOAaoJQJ8RgghhBD/DwKghuF/DWf+GQBYdA9gJ+8B5AiANtQvfiGEEKKcIAAC2E4A5Pb4PYAvBECtEUIIIUR5wvCvwdfcA8ju0XsAA6hX/4QQQohyhwDwvVpfDJRBSwB4fQ+gBwNGCCGEEJUDw78Jsx7fAxh4+1zDXwghhKg4GP4+dDgGyBcCYFv3AHpRw18IIYSoVAgAP18A4ju4CJhBnfkLIYQQlQ4BcJQAGMRSFwEzeN0IIYQQojpg+F91PwYoBAB2EwA1RgghhBDVAwHQQwCsbHEMMEcAaGGPEEIIUW0QABcZ/rMuxwB5AqDFCCFEORDqXPDhUTyHV/EmtmIb9oSiC70F0731iB+wDe/jLbyEZ+s70gHU2+ViX0MA+Bj+7S57ARJEwDGzS9gKeBhPsxkwGH02HGQ9cKAzMqz/u10w5rTUjDlPTiadx8Gk8yiYcpqPo/6movpgsPvxAr7EOI7gDH7HFbS/jW42bevdTeMMw38I49iMF4wQ+xSGf7A4ADBCABwwHmEr4GF02Aw4SABMEgBTqxIAQ7HIcBS1P8ADo87TuwRAH44TAFOrMvyT2JMKP9TTzKKyCcUW/BjEBuxjsP9AW0LXANg6ArDjL9MYx3t4Rl8HxH6CAOjfdBEwi57O/tkMeBCvsBlwjgCwaAkAG92QALB8AbAEwFIskmjtiiT0f7YNvjnPzo46kc9oGf5rJp0n+NimnEfYbMfDD7HpPR4xQlQSdbF5Xyg2X4sfGfxTmEcG+w6MlvgKUGyHq8s4jd142QixDyAAGjBPAFjsNx5hM+ANAmCWALCbAgCLAgAZ/llsUASUGv6tARxl+K+g5SuAawCk1gMgNx5ujBshKgEG/wm8g1NoQ2suFPQQAV4DwN3FcWyq/7B4DA8YIaoQhv8ZnGb4L+M944F3rAUmADIEgHUPACwEACYsw38JbxrhyojzPDDitA4QAJavAHZTAOBaAOAfAYCNdiLc2DIRfqCwEuUJw96PtzCJObTeAmD3xwClXcwz/BPYjH4jRJXB8D+EnzgGmCUAznsMgDcEgEUCYNQ1ALA4APDrgBFbBcBtzG47AHAjACYJgFNGiHKirmv+ENb9+sVfbAix3ALAMvh/sne+IVHeARz/IRK+uhcyjogYY/gijhFD4pCxF9ELE53OuZAY+2Pmgpm6cK3STl9oFMtCormtP9aW22KZs9rcJiEyWostIjazP/SimcZ2Wi98IYfEePrcdeWld533pOedfj/wgV4X9P08z/Pz5yP7sSSv+T9djiLmFQRAPfYSAM7Yx//PF/Hi4wDw+ygAIp8DeBgA2LLlt2VGhAmA2tMEgDU1AEI/AxAAk94CEABYUWqESBQYficewpEw44+YqAEQEgGM/xgeQJ1kFvMGxn8NdhAAqTYC4BW8s2dKAGDEAMCJANBngDD8vqHW6w+AC48CILbPAK1GiLmGwU/DUhxEy6+NAJjLcwCIzRPmIXpxjd4GiPkA45+B9QZsBMBK9AYCIGiUg4CTPwPUGxEmALYz/rVYY9k4B9BuhJhLGPt0bMRRtCZ8egBgIh0EDB8AiF5sMkIkOYx/GpYZGzQFAwBDAyDCZwACAPc/+RlgmxHPGgD4MABQASDmDgY+BTPwAlqIsxIA4ziCg9gfcN9jbxAAXhyb0XMAmDfV7/B5I0QSQwAU2QyALMZ/EBn/qJ8BwgVArhHhAuBW+AAIvQ+gOtx9AFi53wgxFzDwbjyP1gwHwH28hq1YjYW4CrPQFXDfY5cz/isxl7EvxWY8h2OzEADj2JmnnxIQSQwB4LYZAIvxXJQAwIgHAXV5TfgAOB4aABgMgKgXAvlwrREijjD8Q4uwkIH3ohXOGM8B+LAP/YO/Fp3mGWH40zAbd+F5Bn7E1meA8HbqTYBIVggAhwGbEbDZHwCTDgJGvQ8A24yIFAC5HAS8Z+McwHnU/0MivvjHHwcmht52APiHvxuLcBmmmlmAcV+Cq7AFvTMQAOO41wixwCAA0gmAm/4AiOE+gEHUjZuRA8BBALTFHgAfvkUA6OIyER9yWoZSsQB9BEBg4G1GwC1sIQBcJs4w9A704EVbnwEQz2GGEWIBQgC4Y7gPwEsEZBvxVAiANAKghwAYjxAAofcBjBIBu4wQ8YThz8IbaNkMgPvYhSswzcwRDH0KZmAzjka5D2CyXlxhhFigMP4p+BLj34P3n3IQ8CKfAfSz/9OEAFhCAHxCAPhCAmDyW4BRAqCMAHAYIeLF6pahDIbfixYy7DFEAMOPf+EqTKi7q4MhcBZ90/gMcBndRghhGP9UXE4A7CUAOhj/XuwiAPahht8mBMALBEAVdhABPQRANwHQRgCUEADpRoh4wvg7sR0tOwGAbQy/yyQoDL8Tt6AvyoVA7jz9siAhpkAApDL+TtSFWTME45+K6QSAnvbF3MDop2IrWiEBgNMKgH+x2iQJBEAO49/3RADoyV8IIcRChNHPRZ+NAPBhESbNz8wHzwa4CQDvRADwZz35CyGEWEgw+C/jNbTCB0DECLiMSfvETAC48TLDP4A5RgghhFhIBF/9/x9jAHjRjUn7xMz4p6Cb8S/ERUYIIYRYKARf/VuTjPYZYAD1xCyEEEIkI8FT/102AqAM9cQshBBCJCOMfDn6phsAOM7wNxshhBBCJCerPxtKY+RvohXRqQHwKwGgX0qR4OQ3jTjQhcsxF4vyd4+40YUJe09DPHivcciJrpLGwax1jYNF6xpvu0sbbrvQaRKALXVXHejaitvqrhZsq+svrqnrd9XUXXHVeq4sNSJmOiu/cnRWfuk6VXE083TFkYLTFa05ZzYedv2w8RAeTIh/dyHiCgFQhtZ0AwDHCIBMIxKG/Kbh59CNpdiKl3CUwbemuHuKg9iLzVhcQCDgvLrc5e0ddxzv7LiTidXvNg61o5fxt/wSAAEJAIvxD7i+4fbo+oaB3rKGAc/7Df9k42JMMbPER/XXMzB7c/31xo/rr51FL+Nv+d0alACwaoISAAG3e65c8nj62nFDnafv1TrP37pABk5UHU/BxSeqvs09WfWN52TV190dlce831ceswgAq7PiqHWq4ohFAFhnKg5bBID148aDeGCsq/yLP34q/7zl5/KWEsz85YNP9Xcq5icMvxO7YwyAo0YkBK/tGV6av2d4E2PfgwNohRoxACI7zvgPYAduQqeJE6/vurcUiwsD3i1+w+/Ou8VFO0eK3wy6ZufwA/buN7SqM0/g+EMIJeSFLDJcZJFlGEKRIKWIhFAWCWXodtud4HbbjNN1h650bLTVRBNnbc3mj6nT1jT+rRO7TurYzIx10+xuxjo1TdOsTVMRJ9isBGnvqFvCmN5aX4QhXCSEZ7/n5MRzc/7c8zy5556kO+cH37fiu9+H8zx5rtlTP/u6VCjMP758q4gqN758q5flnyTJ8jdzAYAyAEBfymeJ7rD8Bza3/G8tFYkQZ2fj56X0Cst/hCYBgGT5G7H8KRgAdFUCgGkAMAEAehv3/M+zFOr/c//uy0VUwS8DVr1uxZPAZgeIVwGrDlrxJLCR0tI8vutC+fFdg1Vv1g9W/Vv9AH1YdaKuv+oXdR9Uddb1Vb1Vd77q5M7fGT36y53nlP7Nd2rOrDxT804LALgAACa7t/9aAgDZs61LKgBAAgAJACTLf5qS57cc7e3bcnR935YjoaN4+Ll/Lf/0uYYqfh2wit8FMONZYDNeBDTjSWCruj/rL3bx5AcAT9KUBgBG6X4Rz6INS7+QHqLDlAYALHbfNABgV2k3Wfna7e7K1755iIryDIAqkusJAMi/JwAgAYDZPxDL3wwANIos8/TLEwnawPIfI7nRiOX/T0atf/QBAFkAIBsABAAky98oSVufa7m5TOQwO5q+KNvR9HknSQAgWf5m9WYWAMgJABsBDgBYAQDZSADgc9rUtGe0OCQAJGgQAEij140cvwzo+HlgpWXVsetC9/Fd/y0BgAQA9KE8Ud8vAYAEAHRevrXzfQkAxk7uPOf7b/6m9t1Cuv90TXfnOzX/Pnmm5owEAGYZAKC3QcApEwEcA0iOAUwA/BYAnJ0DwPPHQUAHCPi5gQDJFwAJAOQHWw6P04/7txz6TogA6B5+rkECAOKngc12+/08cIuIJ56QAXCapAYAWmlJ/bjPn9Ow8BPUSl/SDEkAQMoAIA0AEACgb/5IHZRYPACQBQDyBcCP9k2U/OjliT4AMPU0i18DAOQPgJ8YACCWf5o6Sfscvqbpi+Lapi8203WW/wwBAAoPAGQCQLL8p+gYrVjqADhePwgCPjIQYAGg3wUAygKAnq0AYAQASAAgTQDUvKMCADIA8IsgANBhAwF/6q8++D6tDBcAdA8AL3oCgGIAxBPq8l9OaVUAUIrlH5+HLcKw6IupksZJOooAACYCjCaonorzBQCyAUCZACBfAGzY91Ux1QOAFEkAYAYAyAaA+xjABgBlAsD9FcBGgKxuuZmiddUtN+4TAbO9KVlAJTVNyQGW/zRJY/nbALC/AvgdA+z2PQa4ShYAyAIAjcomat4zOkYlOQHgxVkAkA0AavdAwCHSBsCuTADwFaAOBBgAoLfq/AHwq9r/XE3dv679DwkA5GkCAHQGBMwB4DcEAraZCLABEHgMYAFg6xsgwADAEQMAsr/6EB0c/7D6wMbcAdDYDQLkp7NfAWIAxBPdsPQ3kCRSQkD8Z3+LMCz4IjpMKZIRAIC8AWCVpmO0In8AoHsAoAAA/JDlTy0AYMpY/t4AoDkAuL8CuAFA2QBgIeA6AFivAIAyGgYAsoblbwKAQgEAeQKAmmwE9FFJLgCgOQBQeADo8AXABxYAzK8ALgB07egt7drxX1cBwMwsAHoAAAjwA8D2TACQGwA0DwAEArwBIAFA6sPq9keiAcCuGADxhPunf9SjAYCbtFbEE+mw3B+kfpJ22gAI6xjA2RiVUUH+AEABAKjal0r8cF/qHACYBgDSyESADQC9Y4AsAPiJGwB0I72l5cajVCAcs635D/fR+m1NyRQAkDYAaA4AC7wH8JLKMYANAPpspGXPZ8tzBUDgMYAGAH6+6+NuECD5CmACgKx7ANkB8PaO3/747R29EwBAAgBpAYDelfYxAAAwcgLA8xjAfQ/gd65jgCPWMcA9AFB7aqC6fWOuAJh/D+BFNwJiAMQTLgDGV7Hwr2oAoO9v4s//kc7ftadK6NLcWX9AvgCg8AFgd4XKIgAAuQHA8i+mNpIAQGoCgLQAQJ4AkCz/K7TaAwDr6Pq25qQEAOQCAPkBgMIFgAQArVQkNOe1rAAgBwBoAQAYtAFAmRcBOQYYAwGlgjm18+yaUzvOpkCAzAAAOQFwhuYD4F3fewCdswAgfwAcpSMWAA7NAUAOVL8+TiViAfOJAwDWV4AYAPHkHQCVc7f/FRGwScQT2bD4v09JClr80d8DcJeyvwSEAQCyAEAAwHkMYAPgqX2pgyz/aQsA5AIA3cpEgOc9APK5CEguADgRAACILm5pvlEsrHmh+Q9rKAUAJNkA8D0GsAFAmQDwPgYwAWAjoCH4GMAAwCRtWAgAaBAEyDa/ewD/QgsEQIfrIiAAmD0GsABw3gQAfwpYdmrne0kAIGcB0Ct/dQ8BAIAAgOcxwLsWAiwA+P85IACgzIuAzmMAGwA0MIuAwYHqtpULA0CjVDkGoBgA8YQGgAaSGgAoEfEwkSz/BI2SDAkAaRb+mKMkSz6dMwDsLtGqvACAvADAnwKW05Sx/E0AuL4CWAAgDwCkWP5jTgCQPwDIEwBkAoC2Nt94RjDPN19fSX0AQPoDgLLfA0jRNe4BTPm+B6APAKPLuQAg+CKgPgAo6B7AGF8BSjkGeP+XO9+bsQBAvZlfAVQAMAYAxjXfAzCaDwDrGCADAGkAsFsfAE1KAKAYAPGECoA+DQCMiniYSJb/9+gCyQUC4C5do5P0LH2XCoXPsOhX0Xo6RVdoWvsYwG6ElucKAMVjgDN0GQDIp2wA+B0DpFj+PVQLAEqpyPEkcBGVsfw3Uw9fAa7/s9ZFQLIAwBeAERBwP8u/iyQAoGAA0DgA6GH5bybXkQqLv4hK6BkA0EnXAMDdbMcAjX7HAETbcwQAhQGAoW4QYAPA/z2AJF8A3gQAkq8Akq8ANgC8jwFSAGAQAOzmHkA5CHAdXwKABFUAgFqOAfoAwM3s9wAAAAEAcgFAflTdlqaShQLA8R6ACQCKARBPXgCQUgZA/PJfZMPCP0F3FwiAcXqBhb/ad+n7Q+A+KqF6SmoDwK6FCvMMAPr6TwDgrgIAugDAIxwDFAuFYfkX0Vq+ApwEAFMB7wG4AEDprc3XT7P80/MBQN4ASLP8u6gcACj9H1n+hSz/1fQCxwCTCwTAwN49nyXUAfB7EwDkAACFBQDHMYADAGkAMDUfAGfJdQ9gGgAMAIAKvgIkhOLwBWAZAFjLewBtAOCOwnsAcwAgEwDUZiCg7aPq/YU6APjEBoDfewAxAOIJdfknSFqpAGCriCffi7+AniZpp4yACaqnUC5psviL5iCgfAxgd4eeyBUAge8B2A8CWQCwEWAB4Co9KXIYln85XQMAM57HADYAHMcA182eJ7IBMO8iYHKG5X+VykUOw/L/Lp0mGwD+7wFkHgNMAYAnFwaArMcAWgA49lMnAILeAzABQO/JjHsAJgIAwE1aDwIKRQ4DAFZyDND73vPHpxTeAzAAkPkVIAkA1ugCQPEYIAZAPKEAoMIFAH8ETNIjIp58A2AVXVkAAEapkgpFiMPyL6Q1NKIMALuLuQJA4z0AngWeBwD6aozlv5oKRI7DEUAZXQo4BggGgPsYoJ+vAGtFCMPyT1BflvcA3AAgAKD8Ze9VAAACLAAEHANoAeCTWQDQ8eD3ALIB4DJfASpESMMXgAQAaL0HAHIDwPMYYJo2qwOguRsExACIJ7ph6T+THQDx3/9HPSz5LpIaALhLw5QQeRwWf4I6lQFgV00F4QGAfAFANgD6AECJCHEAQCkAmFA8BmD5kw0A5zHADAA4S0UixNkDAqhH5xgAAEzufemzIm0ABBwD6ANgSBoIcL4HcML7PQBpHwOYAJjhHsAlAJAQeRiOABq4BzCVcQzgugjoPgbYf1EXANYxgPs9AAsAFAMgntAA0KABgFFaJeLJ5/JfQ2lNAAzTamFNBAjoIx0ADNNf5QEA5AuAJJWIPAwAqGf5p4PfAyB/AFDyEst/lcjDAIAHAEBa6T0A2ksAoFwVABQAACIAQLkAYNDrQSByAsD8CnAJBDwomDwBIAEAej3fA/AHQJqUQDLkDQDnV4AYAPGECoB2DQAMUkLEk6/lv5zOkSRSQsAYJUSEw/IvoWENAKRpUw4ACH4PwAYApb4EAesEkycAJFj+fUrvARAAIBcA7lCpyOMAgKNuAPgfAwCARj0A/F56XQSkBQHgDQDAPQAbAAHvATjuAUwAgBKR5wEAKwHA5Nw9gL7s7wEAABMBG7QAkHkMsLkhBkA8eQVAN0lFBAzQcrEE5m+P3CqnKt8OZzZh9phfh1T7quqxg3aPq3TAbJkiACoopQGACXpCRDws/wL6vtYxwKvfXAwVAOQCgI2AnwKA+wSTRwTUZgUAbfE/BpimRsHkGQAPs/xTge8B2F8BToOAQm0AGPk/CKQBgGEA8AkAGJL2g0CB9wDo3BQIiOxyMgDocjwI5DgGcAGgTQ0ALQCgWarcA6AYAPFEDoBusUSGJd9N0rfDzibkY9k6pNJXRAftHg/qgFmFUJjH21PdxnLXAMBuKhSLNCz/DpphwasiYK02APSPAcYAgH2Wnd+vAGml9wDcABiklREA4Ds0MO8ewJ6sxwBDAGCFKgDIAkDQRUB9APi+B1DneQxwEgAUi4gGADxMtxXfA6D9vVS0AACQGwAUAyCeGADfIgBsDFz+B1LLAMCkBgDGaVG/xrD8H6IvNQDQmmcApGmTiGhY/iMKACAXADYKJgIAFFCHxnsAoyBgVQgAIBsApAUAxzGABQDfewBpALBGRDgs/+/RZesegBsA7vcAhgDAChUADAEA/4uAFAMgnnwDgL79ACAHACg3ANBCAdCoAIDaxxWXP6Vpq1jkYfkX0UlSBcAw/aUuADTeA7gAAOx/P/8AOGYBQOc9gJsiwgEAG7zeA2jyfg9gHACU6wIg4D0ALQC8YQCAAu4B2ACoO39CRDws/0LqsgBAznsA9nsAFgDGAECpMgDIfg+gwXkMEAMgnhgA3zIAdAYs/2LqIVUAjNL9YgkMy/8JDQBM0LqcAUBeAKAGAFAgIhqW/yaP9wCCANAqIhwAUKbxHkCKAo+rXskEAIUJAHIDwP89gDsg4DGxCAMAGjQeBLpJa1UAQCYAgh4EohgA8UQEABsBPVQgFOb/NQDIBoASAroDAPAAfU5S8StAq1giY30FmNI4BtiuCwDF9wCmqUREOCz+SqV7APZFwAn6axHhsPyXBb4HYAPgDj2sBYDgYwDSB4DXewAAwPkewCAlxCIMAKhUfQ+A5Z+iimAA7DUBkP0YgPcAYgDEs0gA6Ke/EAqzJABADgBEcw9AHwCVlNYAwANiCQ0AGNIAwCklALyqBwC6JiIeLgJWsPxTGg8CDdEKEfEYAFB8D2CanlABAJkAoNAAcNQBgID3AKjvFbE4AwA61jgAQD73ABQB8LEiACgGQDzhvQOgAYALtEIozNIDwK2lDICDJBUBcE0ssQEArRoASOYGAPIGwDER8QCAdSz/Cec9APK7CNgpFmEAwLgbAOR9EfDJYACMOAAQ8B6AJgCMFN8DqBCLNACg1ACA/3sANgBICwCUCQDnewAxAOIJFQCNJBURcAUALImz5zkAfCvuARwMBMCgBgDeFEtsAMAzpAqAtC4AFB8E2iQiHgDwICXVHwS6sSgXN3kVcMwEQMB7ADoAIDcACATkAIBPvQBAvgBYJhZpztkAIO4BZH8QKDWgD4Cs7wFcjAEQT0gA2KgOgKXzWwB5AQDpA4ByB8AkSUUEjFD3vV7/WqkfGLVl6/b89gdXaXfRAoAqAkpVAEBS8RhgEgA8IiIeln8pjRkAUHwP4FER6dgA2BMIANIEwCv+AKDcAOA+BrABYB0DJEXU434WWFoIsAHg/R5AihQA0AoA9poACHoQiGIAxBMCADrGKzQAMEUqt26XKAAW7RigO8vyT5B0AUAxlrtSPzBqy9bt+e0PrjIjTQBUhAyACb4COC/XLT0AtNzwWITRAsC+CBgOAALvAWgC4KgNAPJ/EAgADIpFHhcAKFcAfDwLALIA4P0eQAyAeEIDwEolANhtFfEIANCuAYD2LAAoywEA9HVICLjtSB8ApAqAKlUAKN4DGKNol6v9y4BjJFV+GIhKxCLMSxYAFN4DUALAz/6PvTt8req8Azj+IEEuvggjjPtiyPBFKCUvRIaUUkoRGaJuVRGRvpBqsqx1ri150WmcGqbRpjVrbYx2c23qpJQygmvdJm3WpWfS2TS0ruu6W5EgxUXNbm0YeSGXEsLZ956d+MTTc+55nnvPvfe59z4/+P4Dvnk+nufJ74YDgHwAUAIAiHsHMCyqPOfvAsAJinoH8HyxAAjbB2ABYCfxa4AZDQQMCTsCAAxrAKCnAAA2kxtIGQBUewDgh4ESBACZAQCFfQApUfGRAAi9BpAAINIAAEkARO4DIA0AkAeAkIVAZBoAfi0BEL4PoBQABPcBWADYKdtXAEcDAJOiwYfDv4VGSRUAWwsAoJPcb1QDAKBiAdCjCoDYa4AqA4AKAYAkAEQVRgLgX27MNYAWAMgDQMw7AC0AHPcBMKjyDsAEAPwUAMivAIV+GChLSgAgV/EawALATmJfAI6Rq/HngK2igYeDv5UuaQDg/gIA6DEWAFpfAaoLAKo4ADoCACi4D8BAAERcAyQOAEoAAHIhEBkKgIh9AMoAOBwKgL9ZANgp8xeADRz2OQ0AdIkGHh4CPsDhf0PjIWCzPgBq9RqgUgAgUwEw/xWgRgDQUzoAJAISAIC8Bij4DqDqAPgTADgPAGL2ASgD4EIcAOQ+AAsAO4kCYDmH/RVVANA5ENAsGnQAwCYO/68VATApmMYBgBICOhMEAFUPAJQBAa6HgKh9AAYAgNx9FAoAAgCkCICf/x8AlCwA9twNADIcAKeUAEDZv2gCIG4fwAcWAHYSBMASDvuzGtcAUwBgtWjQAQCnNBYCDasAwNhrgLK8A1D/KwCFawCjAFDgHYARAIjZB6ANgNhrAE0AHA8CwL8G+NUdBJgGAO8aAABE7gPQBwDF7QMgCwA7iSKgSwMAcwDgOdGgw+H/qcY+gO4EAZChg2FxuCv1cL7+Qt26u6PxbVgQAKCv4mpLGgCbLACiAXBAAiDkIaA2AI4AABAQAAAlBID4h4AeAswAQNhDQAoCgBQAcAQAHM4DgMIBcNECwE6ZAJDWfAcwQ2nRYMPB36axEGiaVhcGwH+2aQDAoYb4N9/47Fc1AwDKAyBwDWAOAPb6AKCYh4CkBIC/FwIAFQeAgQAAIvcBGAaAwD6AwDWAHgAu+ACI2QdgAWAn+eGwH1H+CnDSq1s02HDwH9T4XYBL1BoDgK0aABijpaIBRgkAEgFVAUB7LADICABkAgAIuQbQBMCRBQCI2QdAqgAYG+YrgASA3AdgKAB+43oPAeP3AegDIHofgAWAnbIBYDPd1vgKMGHKbwNUYjjwW+lSAAAUCYBTgokBwPfIVUTABK0QDTB5AJArEWA6AGKuAYwBQOQ1gBYAyOErgPtMFACoWAAUvAbwFgKZAYA/AoBvXAMEAfATfQCoXQPstwCwkzgAltKYBgDmaEA0yHDgb6OcBgA2KwAgrQGA/9L3RQOMLgCo8gDo/XdbewEA/LiBANBXIQDIfQCOoQDwrwECACAlAJAbeQ1gAWBHlB8BHRoAmK/uDyUO+2aa0PhhoEmhOAAgq3EN8JRogFEHABkAgHyR+wAMAMDeA5EAkNcAmgA4EgSAREDRABgAAIFrgPB9AEYA4GUPAAX3AXgAeFEJAH99/BkVAPjXABYAdsoDgGaa1ATAKNX13TSHfYfmLwMe0wDAiAYAzooGmNoAwGQbCJAAoDAAUI0A4J9aACAPANH7APQBQB4AAvsADAdA3D4AfQDE7QO4aAFgp4wI2EU5TQQMUZOow+GgX0kT5IYUBoCrtFIDAAfloR+LgBlaIup8QgBA0QDYaAgAFnwFMAwAGQ8AMfsAtAGgdg2gD4DofQAXfARUHwB/AADz1wByH8DJsN8FyIIAdQBQyD4ACwA7csoMgGX0kSYAcrRJ1OFwyL9Oc+QqfgV4HQCkNACwhYM+p/EVoC7/nRfOBh8AZDgAJjPthgOgex4AB+IBQLEAOBwDAAoA4KMkABB8B2AkAEL3ARQFgMMWAHaqMBIB62lWCQCyKdos6mQ43BdTF7myWADkSOswAgD30mcaADhPLaKOp6YA0AsAot4BGASAmGsALQBQLAAIAJAiAF70AUBhDwHJNAC8IgEQtQ/AA8BAlq8ACgDoGwYBruI7AAsAO2UFQBOdV9gHEGyC2kQdDIf7arpBbmwSAK8JRhMAKTqrAYBpWi8MGjYCttLSJAGwwXAA7AgAoOA+ACMAkHFj9gFoA0A+BCQqCwDkPgCzAPAEAOArQNg+AACw8Bog++ckACD3AVgA2GHKj4DllAkAQBUBa0SNzvqBqUV0H2XlAa8EgCu0QuiOvAZwwwvd/3/JlLcAHPzfoVGaYR3wED1ISxoHAJOuwjsAwwBASQCAYvcB6AMg+hoAAPgIMAYAd18DvOQjoGQARF0DWADYkVOBrwCd2gCQCLhf1OD4h/8n5OoAgHYDgMVFAqCZZjR/GOgxYcBw8HdRjtwNRFP8JsAb1FY6AIIIMAsAO+oAAHIfQKkAoOQBENwHYC4AovcBZEkZACTfAYRdA1gA2KnISAi8TF8rA0CWpacpJWpgOPAX00OUJZdIGQBjlBIlDAf9czSnAYApqtqbCw78RfQQ5SJ+HjjHD/84tJ5a6hkA7Yci3wFQ9QFAbuw7AE0AEACgEABQUQAgCYDQawBzAHDuiSHXewhIAIAifxdACQDO488OgwBX7R1AjwWAHTllBsA9dFELALLb1Lv25HXjH61x2HfSVXI1ATBF6wVTIgAeoGtKAJBlKC0qORIA99I4uREAoK/yTdN5WkOpugRAb50AYL8KAD6RACAKB4BEgC4A6IOwfQAGAuAVN3ofQLIAIAsAOxUeiYBW+qIoBBAAmKA1ZMS99cJZNzDVRi/LQ18LALPUIZgEANBE/eRqImC8or8RIB/9ZciNBoBEgN8VWq4DAAoCgMwCALkq1wCiSrPnwOcSADHvACgWAL0BAERdA+gD4EMJgPg/BzQDAPIhYKF9ANkRFQDslAAI7gOQAPC/AlgA2KnYSAQ8QtmiAECUpVNrT5ixNXDdwM0mWk+fAoBZeehrIeANSgkmIQS00owmAOZonNKCqdDhP0KuLOYrANHzlKpXALQbDoB8ch9AaQAgVQCQGgCO+QB4sWYA8KoHgNh9AACA1AFAIfsALADsVH8AwBoO/Kw+AGQAIEt9a0/caKOUqPCsO36zxT/436dZcgGAWwQA3iB56CaHgC7KKQNAlqEt1FSWg7//1mJazSGfJVcTAFeoWTDFAICMA8D2AAAKXgMYBIDoawB9AFAEAKgkAFD4Q0AyBwDnAIDCPgBFADw3zDWAq/IOgCwA7FRnOPA7KBsAgC4C6EaGhmg5NVXg4F9Cm2iUpvMHv2yKtACQoWWCKQMA0vSuFgBkWeqmljIAYDfdkIe9GgBohsN/h2D0AUDGAuB6AACF9gGYB4CQfQDFAoCSBwAZDYC3AEDgGiAMAJQHwKAFgJ36GQ79wJeAogAw3yx9SrtpNX2XFifxP31aTo/QaZohd74SADBCrUJ39K8CpkL2Aag2+cNffrmL2ko89JtpCznkeh2NLQiAXgCQqkcAbJcAKPQOwAAAfO7GvAPQBgBJAETvA9AEwIeu4jsA4wAQ3AfwNr2zSxMAOwsAQF4DWADYqeJIBDxKU0UCQCJANke3aJx+R120au3gjaVKB/7gzaUc7PdTJ52kUbpCOXJlJQEgEzj8y4mAx2hG7yuAjMM/Rxnqpwf1Dv4v09TJgX+OZsgtBgA0BgBaBFMaAIIIMAUA1z0A7DAcAFQYABIBCQCAigQARQCAjAPAaQ8AsfsAAAApA8CZB0DUPgALADumDAd/G31Cc1rXABIA8Q3eaYIyC1vndXOSXK/jmg3IFN4BvEZKGEnwrwI6aLZIAATL0gj1UQdtmY/DPl83DVGGcuQS3QqkDIB3ycNSowCg3XAAyIeAxQPgUAAA8dcAH+sCgAoCgEwBwKsk9wFELARSAsB7AAAEuGrXAL+wALBjxnD430vDZQCAbDC8dXe6KUseADkaUn7wlzwChmhWAkALAUo9nK8/UGkAyNJywdQ7ALZLAMh3AEYCgGIeAlLRAKAkARC9D8BIALwSvRBoVx4AJxQAcNQCwE7tDgf8brqqAAAyEwAhCPiCHqEmUemRCFhC++l2HgA/MB8A79NKwSQFAAoCgEwBwHUPABQAAM0DgESVZrcPgALXANoAIB8AFABA4B0AqQHgBR8AYdcAg998B1B1ALwJAN4CALH7ADQBEPUOgHwAkAWAHdOGA34xraSxOgHAeVolDBgO/xTtpxnDAXCJWgVT7wB4NACAgtcABgEg9BogKQAErgGSAsBxEwHw5G8lACL2AfAQkE5m39lVAgBIAuCQBYAds4eDPkXbKEOz6g8B9QFAQQCQNgCC1wAf0U5h4ACAVQDgsrf8J0kAlI6A29RPacGUCwBkPgDmvwIYDoC9CQBAXgMkC4DIfQDGAeC0q7APIPu2FgAIAMSsBbYAsGP2cOC30X6aIdfLNADcjYBpANDP4d9Ki4ShAwBWcLi/nhwAqDQATFEXLRFMIwGAYgHwI8MBQJoA+IcHAKoIACgAADIIAP5XgIIAIAUA9A+/dwcAz1oA2KmP4dBPUzdlKGfYNcBsfhUw9ZIRK4pVhwN+K12g2SpdA0zTWZL/bmUDABkMgHwR+wAMAMDlzG4fANH7AD4jRQDskwCIuQbQBMD48As+ABT2ARgAgDMSABH7APQBcNQDQMw+AAsAO7U3/heBDg7+cZo1AABj9BQH/z3UJGpsONwX0XfpaZqoIABmKf/Qbz21CKZyAAgiwCwA7DAcADH7AJQAcBAAgAAfAJQUALolAAruAzAIAG8qAICSAYBXrwWAndofDv9W2g8ARugaB/zXxQGA1AFwlUapl5aLOhoO+hR10jmaormirgH6I8sf+hl6jR4kCabyAGAVOcE23mla1jd9hpaJSo0EwDI6Q8524vD3aicOfy8AQNecThJVmt09l08DAGePHwBw9vpx+HvtIwDgAIBVCgD4FgAY8N4B+AEAryMEABwA4PR5fewAgGWKADgIAJxjfgDAGfADAA4AcAYJADgAoOoH4O+fPOMAAOctAgBePAR0AIADAByuARweAtJLbwKAFSJmRnf2HwQADtcADgBwuAZwAIAXCKDDDgCgQw4A2CHs2Kn14fBvofs44LfSSRqjXDgCtAFwm8ZpkHbQSvq2qOPhwG+mh6iLRmimxK8Ak3SKtnHot1FKyCknAFKUDrbxTtOyvukWCoKkEgBoohZKbycOf6924i8B0h0EAOhaupNEleZnPZdbAEB6jx8A8NpL/CVAGgCk9xEASAOAlAIAFh0CAd4+AD8Of68jBADSACDdRwAgDQCaFAHQDADSx/wAQHrADwB4AQC6mAYAzaLKAwDSvANIA4A0DwHT5/7H3h2bNBiFYRROJcEildwJnMAJLNXCQYKFE6QQMQME7P4qZSoRCytX8yApLIVYhPA8cCCZ4HtzmzxMowEw3qsBMBoAowFQrxcNgLM/vAAsGgCjRgNgNABGrwD1MhoA9TwaAPU0egU4ur9Vh3/RoZ/X5X4UPNa6trW72fz0Vl/V56oGwFSrjv+y7m43p/UL/8BRcNVxv69VTbXb91Gfv75vGwDrjv2yrmvMAOBYdPDn5TgdqIN/XosZAAAAAAAAAAAAAAAAAAAAAAAAAAAAAAAAAAAAAAAAAAAAAAAAAAAAAAAAAAAAAAAAAAAAAAAAAAAAAAAAAAAAAAAAAAAAAAAAAAAAAAAAAAAAAAAAAAAAAAAAAAAAAAAAAAAAAAAAAAAAAAAAAAAAAAAAAAAAAAAAAAAAAAAAAAAAAAAAAAAAAAAAAAAAAAAAAAAAAAAAAAAAAAAAAAAAAAAAAAAAAAAAAAAAAAAAAAAAAAAAAAAAAAAAAAAAAAAAAAAAAAAAAAAAAAAAAAAAAAAAwHd7cEgAAAAAIOj/a4szAAAAAAAAAAAAAAAAAAAAAAAAAAAAAAAAAAAAAAAAAAAAAAAAAAAAAAAAAAAAAAAAAAAAAAAAAAAAAAAAAAAAAAAAAAAAAAAAAAAAAAAAAAAAAAAAAAAAAAAAAAAAAAAAAAAAAAAAAAAAAAAAAAAAAAAAAAAAAAAAAAAAAAAAAAAAAAAAAAAAAAAAAAAAAAAAAAAAAAAAAAAAAAAAAAAAAAAAAAAAAAAAAAAAAAAAAAAAAAAAAAAAAAAAAAAAAAAAAAAAAAAAAAAAAAAAAAAAAAAAAAAAAAAAAAAAAAAAAAAAAAAAAAAAAAAAAIAFeDsXvZsCvhIAAAAASUVORK5CYII=;" vertex="1" parent="3UHfr8oTY5p3fqEJgbpi-18">
          <mxGeometry x="1" y="1" width="30" height="30" as="geometry" />
        </mxCell>
        <mxCell id="3UHfr8oTY5p3fqEJgbpi-21" value="&lt;div&gt;Test Suite Generator&lt;/div&gt;" style="text;html=1;align=center;verticalAlign=middle;whiteSpace=wrap;rounded=0;" vertex="1" parent="3UHfr8oTY5p3fqEJgbpi-16">
          <mxGeometry x="10" y="10" width="60" height="30" as="geometry" />
        </mxCell>
        <mxCell id="3UHfr8oTY5p3fqEJgbpi-25" value="Feedback" style="rounded=1;whiteSpace=wrap;html=1;fillColor=#ffe6cc;strokeColor=#d79b00;" vertex="1" parent="1">
          <mxGeometry x="365" y="435" width="80" height="30" as="geometry" />
        </mxCell>
        <mxCell id="3UHfr8oTY5p3fqEJgbpi-28" value="" style="endArrow=classic;html=1;rounded=0;startFill=0;strokeWidth=1.5;endFill=1;fillColor=#e1d5e7;strokeColor=#9673a6;" edge="1" parent="1" source="3UHfr8oTY5p3fqEJgbpi-3" target="3UHfr8oTY5p3fqEJgbpi-17">
          <mxGeometry width="50" height="50" relative="1" as="geometry">
            <mxPoint x="290" y="390" as="sourcePoint" />
            <mxPoint x="340" y="340" as="targetPoint" />
          </mxGeometry>
        </mxCell>
        <mxCell id="3UHfr8oTY5p3fqEJgbpi-29" value="" style="endArrow=classic;html=1;rounded=0;startFill=0;strokeWidth=1.5;endFill=1;fillColor=#dae8fc;strokeColor=#6c8ebf;" edge="1" parent="1" source="3UHfr8oTY5p3fqEJgbpi-17" target="3UHfr8oTY5p3fqEJgbpi-22">
          <mxGeometry width="50" height="50" relative="1" as="geometry">
            <mxPoint x="240" y="260" as="sourcePoint" />
            <mxPoint x="250" y="350" as="targetPoint" />
          </mxGeometry>
        </mxCell>
        <mxCell id="3UHfr8oTY5p3fqEJgbpi-32" value="" style="endArrow=classic;html=1;rounded=0;startFill=0;strokeWidth=1.5;endFill=1;fillColor=#e1d5e7;strokeColor=#9673a6;edgeStyle=orthogonalEdgeStyle;" edge="1" parent="1" source="3UHfr8oTY5p3fqEJgbpi-3" target="3UHfr8oTY5p3fqEJgbpi-6">
          <mxGeometry width="50" height="50" relative="1" as="geometry">
            <mxPoint x="240" y="260" as="sourcePoint" />
            <mxPoint x="240" y="300" as="targetPoint" />
          </mxGeometry>
        </mxCell>
        <mxCell id="3UHfr8oTY5p3fqEJgbpi-33" value="" style="endArrow=classic;html=1;rounded=0;startFill=0;strokeWidth=1.5;endFill=1;fillColor=#e1d5e7;strokeColor=#9673a6;" edge="1" parent="1" source="3UHfr8oTY5p3fqEJgbpi-22" target="3UHfr8oTY5p3fqEJgbpi-6">
          <mxGeometry width="50" height="50" relative="1" as="geometry">
            <mxPoint x="320" y="390" as="sourcePoint" />
            <mxPoint x="320" y="430" as="targetPoint" />
          </mxGeometry>
        </mxCell>
        <mxCell id="3UHfr8oTY5p3fqEJgbpi-34" value="" style="endArrow=classic;html=1;rounded=0;startFill=0;strokeWidth=1.5;endFill=1;fillColor=#dae8fc;strokeColor=#6c8ebf;" edge="1" parent="1" source="3UHfr8oTY5p3fqEJgbpi-6" target="3UHfr8oTY5p3fqEJgbpi-25">
          <mxGeometry width="50" height="50" relative="1" as="geometry">
            <mxPoint x="330" y="435" as="sourcePoint" />
            <mxPoint x="330" y="455" as="targetPoint" />
          </mxGeometry>
        </mxCell>
        <mxCell id="3UHfr8oTY5p3fqEJgbpi-35" value="" style="endArrow=classic;html=1;rounded=0;startFill=0;strokeWidth=1.5;endFill=1;fillColor=#e1d5e7;strokeColor=#9673a6;edgeStyle=orthogonalEdgeStyle;entryX=0;entryY=0.5;entryDx=0;entryDy=0;" edge="1" parent="1" source="3UHfr8oTY5p3fqEJgbpi-25" target="3UHfr8oTY5p3fqEJgbpi-17">
          <mxGeometry width="50" height="50" relative="1" as="geometry">
            <mxPoint x="320" y="228" as="sourcePoint" />
            <mxPoint x="415" y="375" as="targetPoint" />
            <Array as="points">
              <mxPoint x="140" y="450" />
              <mxPoint x="140" y="315" />
            </Array>
          </mxGeometry>
        </mxCell>
        <mxCell id="3UHfr8oTY5p3fqEJgbpi-38" value="" style="group" vertex="1" connectable="0" parent="1">
          <mxGeometry x="155" y="360" width="150" height="60" as="geometry" />
        </mxCell>
        <mxCell id="3UHfr8oTY5p3fqEJgbpi-22" value="&lt;div&gt;Test Suite&lt;/div&gt;&lt;div&gt;&lt;br&gt;&lt;/div&gt;&lt;div&gt;&lt;br&gt;&lt;/div&gt;" style="rounded=1;whiteSpace=wrap;html=1;fillColor=#d5e8d4;strokeColor=#82b366;" vertex="1" parent="3UHfr8oTY5p3fqEJgbpi-38">
          <mxGeometry width="150" height="60" as="geometry" />
        </mxCell>
        <mxCell id="3UHfr8oTY5p3fqEJgbpi-37" value="Results" style="rounded=1;whiteSpace=wrap;html=1;fillColor=#d5e8d4;strokeColor=#82b366;dashed=1;" vertex="1" parent="3UHfr8oTY5p3fqEJgbpi-38">
          <mxGeometry x="80" y="30" width="60" height="20" as="geometry" />
        </mxCell>
        <mxCell id="3UHfr8oTY5p3fqEJgbpi-23" value="&lt;div&gt;tests.py&lt;/div&gt;" style="rounded=1;whiteSpace=wrap;html=1;fillColor=#d5e8d4;strokeColor=#82b366;dashed=1;" vertex="1" parent="3UHfr8oTY5p3fqEJgbpi-38">
          <mxGeometry x="10" y="30" width="60" height="20" as="geometry" />
        </mxCell>
      </root>
    </mxGraphModel>
  </diagram>
</mxfile>
